<svg xmlns="http://www.w3.org/2000/svg" xmlns:xlink="http://www.w3.org/1999/xlink" width="1080" zoomAndPan="magnify" viewBox="0 0 810 809.999993" height="1080" preserveAspectRatio="xMidYMid meet" version="1.0"><defs><clipPath id="2cb7cd611d"><path d="M 382.777344 607.839844 L 503.9375 607.839844 L 503.9375 729 L 382.777344 729 Z M 382.777344 607.839844 " clip-rule="nonzero"/></clipPath><clipPath id="21a512c114"><path d="M 443.355469 607.839844 C 409.898438 607.839844 382.777344 634.960938 382.777344 668.417969 C 382.777344 701.878906 409.898438 729 443.355469 729 C 476.8125 729 503.9375 701.878906 503.9375 668.417969 C 503.9375 634.960938 476.8125 607.839844 443.355469 607.839844 Z M 443.355469 607.839844 " clip-rule="nonzero"/></clipPath></defs><path fill="#b1b9c6" d="M 753.21875 462.867188 C 735.316406 452.308594 695.296875 473.839844 654.089844 503.128906 C 666.484375 485.316406 675.152344 464.71875 679.070312 442.449219 C 684.320312 412.59375 686.019531 382.949219 684.210938 353.492188 C 682.117188 319.429688 671.875 280.355469 648.269531 245.550781 C 664 206.746094 694.058594 119.847656 661.292969 90.886719 C 628.296875 61.722656 532.742188 124.335938 490.808594 154.421875 C 469 152.160156 441.0625 152.398438 409.183594 154.5 C 377.277344 156.316406 349.519531 159.503906 328.152344 164.417969 C 282.835938 139.671875 180.335938 89.269531 151.175781 122.234375 C 122.21875 154.976562 162.65625 237.492188 183.066406 274.109375 C 163.890625 311.550781 158.511719 351.59375 160.605469 385.664062 C 162.417969 415.125 167.738281 444.335938 176.605469 473.324219 C 184.4375 498.917969 198.585938 521.367188 217.148438 539.050781 C 166.191406 521.207031 117.296875 510.171875 102.410156 526.320312 C 59.863281 572.480469 258.558594 669.992188 301.867188 690.46875 C 334.378906 725.175781 389.289062 747.980469 451.554688 747.980469 C 523.996094 747.980469 586.472656 717.109375 615.3125 672.542969 C 659.539062 632.066406 804.839844 493.316406 753.21875 462.867188 Z M 753.21875 462.867188 " fill-opacity="1" fill-rule="nonzero"/><path fill="#91a2b5" d="M 442.132812 173.582031 C 445.128906 222.347656 433.367188 262.726562 415.921875 263.796875 C 398.441406 264.871094 381.820312 226.238281 378.820312 177.472656 C 378.410156 170.789062 378.269531 164.277344 378.410156 158.007812 C 398.933594 155.808594 419.515625 154.542969 440.15625 154.25 C 441.0625 160.453125 441.722656 166.933594 442.132812 173.582031 Z M 442.132812 173.582031 " fill-opacity="1" fill-rule="nonzero"/><path fill="#91a2b5" d="M 373.167969 161.742188 C 376.164062 210.46875 364.4375 250.882812 346.957031 251.957031 C 330.148438 252.988281 314.066406 217.058594 310.25 170.816406 C 320.945312 167.3125 332.0625 164.605469 343.496094 162.742188 C 353.296875 161.164062 363.109375 159.773438 372.9375 158.644531 C 373.039062 159.6875 373.101562 160.695312 373.167969 161.742188 Z M 373.167969 161.742188 " fill-opacity="1" fill-rule="nonzero"/><path fill="#91a2b5" d="M 509.347656 158.171875 C 511.308594 204.714844 499.765625 242.566406 482.878906 243.605469 C 465.398438 244.675781 448.8125 206.007812 445.816406 157.277344 C 445.75 156.230469 445.691406 155.222656 445.664062 154.171875 C 457.019531 154.074219 468.429688 154.3125 479.820312 154.8125 C 489.859375 155.246094 499.714844 156.402344 509.347656 158.171875 Z M 509.347656 158.171875 " fill-opacity="1" fill-rule="nonzero"/><path fill="#ffffff" d="M 629.488281 168.144531 C 629.488281 168.144531 635.234375 179.257812 636.84375 192.015625 C 638.355469 203.804688 631.777344 213.277344 622.671875 217.625 C 601.691406 196.535156 576.367188 179.804688 548.246094 168.824219 C 548.113281 162.386719 550.414062 155.910156 555.351562 150.847656 C 575.171875 130.476562 602.929688 108.117188 623.988281 115.21875 C 660.667969 127.621094 629.488281 168.144531 629.488281 168.144531 Z M 629.488281 168.144531 " fill-opacity="1" fill-rule="nonzero"/><path fill="#ffffff" d="M 192.183594 195.015625 C 192.183594 195.015625 187.84375 206.75 187.808594 219.609375 C 187.75 231.496094 195.441406 240.089844 205.011719 243.289062 C 223.25 219.792969 246.332031 200.082031 272.898438 185.746094 C 272.242188 179.335938 269.164062 173.191406 263.644531 168.773438 C 241.476562 150.980469 211.191406 132.191406 191.160156 141.816406 C 156.277344 158.617188 192.183594 195.015625 192.183594 195.015625 Z M 192.183594 195.015625 " fill-opacity="1" fill-rule="nonzero"/><path fill="#678490" d="M 687.625 443.949219 C 685.714844 454.867188 682.695312 465.464844 678.636719 475.621094 L 662.613281 468.957031 C 666.167969 459.96875 668.824219 450.601562 670.511719 440.949219 C 675.601562 411.949219 677.308594 382.710938 675.539062 354.023438 C 673.578125 322.273438 662.597656 262.121094 610.941406 215.996094 C 607.371094 212.804688 607.054688 207.308594 610.261719 203.722656 C 613.453125 200.152344 618.9375 199.835938 622.523438 203.042969 C 631.371094 210.925781 639.113281 219.1875 645.894531 227.65625 C 670.433594 162.039062 674.144531 113.859375 655.515625 97.398438 C 637.519531 81.476562 583.808594 101.316406 513.320312 149.289062 C 526.609375 152.304688 539.390625 156.097656 551.351562 160.613281 C 555.839844 162.304688 558.101562 167.3125 556.410156 171.796875 C 554.703125 176.300781 549.695312 178.558594 545.207031 176.851562 C 533.386719 172.394531 520.679688 168.652344 507.4375 165.746094 C 486.394531 161.148438 453.523438 160.28125 409.753906 163.171875 C 365.890625 165.667969 333.371094 170.566406 313.019531 177.703125 C 300.25 182.207031 288.097656 187.464844 276.910156 193.34375 C 275.632812 194.023438 274.242188 194.339844 272.882812 194.339844 C 269.753906 194.339844 266.734375 192.664062 265.1875 189.695312 C 262.941406 185.460938 264.585938 180.199219 268.820312 177.972656 C 280.136719 172.019531 292.351562 166.695312 305.132812 162.082031 C 229.304688 123.128906 173.570312 110 157.675781 127.976562 C 141.164062 146.632812 150.769531 194.003906 183.210938 256.085938 C 188.914062 246.859375 195.582031 237.714844 203.390625 228.789062 C 206.550781 225.171875 212.046875 224.808594 215.648438 227.96875 C 219.269531 231.128906 219.632812 236.625 216.472656 240.242188 C 170.851562 292.320312 167.328125 353.375 169.273438 385.140625 C 170.679688 407.996094 174.3125 430.964844 180.113281 453.601562 L 162.179688 453.601562 C 156.757812 431.296875 153.3125 408.707031 151.921875 386.199219 C 150.359375 360.734375 152.097656 317.863281 173.222656 274.28125 C 148.214844 228.550781 113.894531 151.261719 144.65625 116.476562 C 160.03125 99.085938 190.023438 98.074219 236.320312 113.429688 C 269.804688 124.535156 304.929688 141.988281 329.4375 155.242188 C 349.964844 150.820312 376.464844 147.660156 408.683594 145.828125 C 440.820312 143.710938 467.496094 143.601562 488.398438 145.480469 C 511.058594 129.335938 543.734375 107.710938 575.671875 92.578125 C 619.757812 71.679688 649.636719 68.992188 667.035156 84.363281 C 683.675781 99.070312 688.542969 126.554688 681.492188 166.03125 C 676.4375 194.402344 666.277344 223.65625 658.03125 244.492188 C 684.339844 285.152344 691.324219 327.484375 692.886719 352.964844 C 694.734375 383.007812 692.964844 413.621094 687.625 443.949219 Z M 687.625 443.949219 " fill-opacity="1" fill-rule="nonzero"/><path fill="#91a2b5" d="M 238.195312 406.902344 C 233.648438 406.902344 229.828125 403.359375 229.546875 398.761719 C 229.253906 393.980469 232.890625 389.867188 237.671875 389.574219 L 284.078125 386.722656 C 288.886719 386.4375 292.972656 390.066406 293.265625 394.84375 C 293.558594 399.625 289.921875 403.738281 285.140625 404.03125 L 238.738281 406.882812 C 238.554688 406.894531 238.375 406.902344 238.195312 406.902344 Z M 238.195312 406.902344 " fill-opacity="1" fill-rule="nonzero"/><path fill="#91a2b5" d="M 249.328125 449.960938 C 245.996094 449.960938 242.820312 448.03125 241.390625 444.792969 C 239.453125 440.414062 241.433594 435.292969 245.816406 433.359375 L 282.921875 416.964844 C 287.300781 415.03125 292.421875 417.011719 294.359375 421.394531 C 296.296875 425.773438 294.3125 430.894531 289.929688 432.828125 L 252.828125 449.21875 C 251.6875 449.722656 250.496094 449.960938 249.328125 449.960938 Z M 249.328125 449.960938 " fill-opacity="1" fill-rule="nonzero"/><path fill="#ffffff" d="M 484.761719 283.222656 C 480.214844 283.222656 476.394531 279.683594 476.113281 275.082031 C 475.820312 270.304688 479.457031 266.191406 484.238281 265.898438 L 508.585938 264.402344 C 513.351562 264.121094 517.480469 267.746094 517.773438 272.523438 C 518.070312 277.304688 514.429688 281.417969 509.648438 281.710938 L 485.304688 283.207031 C 485.121094 283.21875 484.941406 283.222656 484.761719 283.222656 Z M 484.761719 283.222656 " fill-opacity="1" fill-rule="nonzero"/><path fill="#ffffff" d="M 324.523438 293.070312 C 319.972656 293.070312 316.15625 289.527344 315.875 284.929688 C 315.578125 280.148438 319.21875 276.035156 324 275.742188 L 348.339844 274.246094 C 353.101562 273.957031 357.238281 277.589844 357.527344 282.371094 C 357.820312 287.148438 354.1875 291.261719 349.402344 291.554688 L 325.058594 293.050781 C 324.882812 293.066406 324.703125 293.070312 324.523438 293.070312 Z M 324.523438 293.070312 " fill-opacity="1" fill-rule="nonzero"/><path fill="#678490" d="M 356.46875 441.828125 C 366.441406 452.175781 380.703125 460.730469 397.082031 465.304688 C 407.449219 468.214844 418.640625 469.488281 430.128906 468.660156 C 459.832031 466.429688 484.828125 450.304688 498.332031 431.152344 C 500.761719 427.71875 502.796875 424.210938 504.445312 420.648438 C 507.910156 413.160156 509.539062 405.488281 509.015625 398.277344 C 505.835938 355.589844 468.261719 357.414062 422.050781 360.867188 C 375.792969 364.339844 340.589844 372.652344 341.59375 410.808594 C 341.882812 421.488281 347.386719 432.402344 356.46875 441.828125 Z M 356.46875 441.828125 " fill-opacity="1" fill-rule="nonzero"/><path fill="#fd80a6" d="M 504.4375 420.644531 C 493.644531 444.089844 465.132812 466.039062 430.125 468.652344 C 400.460938 470.867188 372.746094 458.710938 356.460938 441.839844 C 376.699219 421.222656 424.113281 388.792969 504.4375 420.644531 Z M 504.4375 420.644531 " fill-opacity="1" fill-rule="nonzero"/><path fill="#678490" d="M 517.691406 397.625 C 515.972656 374.683594 504.8125 360.039062 484.542969 354.066406 C 484.386719 354.011719 484.230469 353.953125 484.070312 353.90625 C 469.566406 349.761719 451.671875 350.125 430.171875 351.574219 L 429.320312 338.78125 L 433.578125 338.519531 C 438.371094 338.226562 442.015625 334.105469 441.722656 329.316406 C 441.429688 324.527344 437.285156 320.894531 432.515625 321.175781 L 406.449219 322.777344 C 401.660156 323.070312 398.015625 327.191406 398.308594 331.980469 C 398.589844 336.589844 402.417969 340.136719 406.972656 340.136719 C 407.152344 340.136719 407.332031 340.132812 407.511719 340.121094 L 411.96875 339.847656 L 412.835938 352.914062 C 392.429688 354.800781 370.914062 358.34375 355.835938 367.476562 C 355.832031 367.480469 355.832031 367.480469 355.828125 367.480469 C 355.828125 367.484375 355.824219 367.484375 355.824219 367.484375 C 340.113281 377 332.402344 391.652344 332.910156 411.039062 C 333.285156 425.207031 340.894531 439.703125 354.347656 451.859375 C 372.476562 468.238281 397.726562 477.585938 423.125 477.585938 C 425.671875 477.585938 428.222656 477.492188 430.765625 477.304688 C 454.335938 475.539062 476.691406 465.710938 493.714844 449.632812 C 510.257812 434.003906 519 415.046875 517.691406 397.625 Z M 481.777344 437.003906 C 467.851562 450.15625 448.789062 458.53125 429.46875 459.976562 C 406.566406 461.703125 382.25 453.640625 366.007812 438.964844 C 356.261719 430.160156 350.535156 419.8125 350.289062 410.582031 C 349.945312 397.351562 354.429688 388.644531 364.832031 382.34375 C 364.832031 382.34375 364.835938 382.339844 364.839844 382.339844 C 364.839844 382.335938 364.839844 382.335938 364.84375 382.335938 C 378.914062 373.8125 401.984375 371.078125 422.703125 369.527344 C 446.335938 367.757812 465.511719 366.714844 479.171875 370.578125 C 479.210938 370.589844 479.246094 370.605469 479.285156 370.617188 C 492.863281 374.496094 499.164062 382.960938 500.359375 398.921875 C 501.261719 410.925781 494.3125 425.160156 481.777344 437.003906 Z M 481.777344 437.003906 " fill-opacity="1" fill-rule="nonzero"/><path fill="#605c5d" d="M 275.113281 368.335938 C 273.070312 368.335938 271.023438 367.617188 269.371094 366.160156 C 265.78125 362.988281 265.445312 357.507812 268.617188 353.921875 C 277.902344 343.425781 290.714844 337.171875 304.699219 336.316406 C 318.6875 335.449219 332.167969 340.09375 342.664062 349.371094 C 346.253906 352.542969 346.589844 358.023438 343.417969 361.609375 C 340.242188 365.199219 334.765625 365.535156 331.171875 362.363281 C 316.671875 349.542969 294.4375 350.90625 281.613281 365.40625 C 279.902344 367.347656 277.515625 368.335938 275.113281 368.335938 Z M 275.113281 368.335938 " fill-opacity="1" fill-rule="nonzero"/><path fill="#605c5d" d="M 505.570312 354.175781 C 503.527344 354.175781 501.476562 353.457031 499.824219 352 C 496.238281 348.828125 495.902344 343.347656 499.074219 339.757812 C 518.234375 318.101562 551.449219 316.054688 573.121094 335.210938 C 576.710938 338.382812 577.046875 343.859375 573.875 347.449219 C 570.703125 351.039062 565.21875 351.375 561.632812 348.203125 C 547.128906 335.382812 524.894531 336.75 512.066406 351.25 C 510.355469 353.183594 507.96875 354.175781 505.570312 354.175781 Z M 505.570312 354.175781 " fill-opacity="1" fill-rule="nonzero"/><path fill="#678490" d="M 531.113281 613.996094 C 528.804688 613.996094 526.496094 613.082031 524.789062 611.265625 C 521.496094 607.773438 521.660156 602.277344 525.152344 598.984375 C 528.179688 596.136719 599.964844 528.757812 662.003906 490.351562 C 666.082031 487.824219 671.4375 489.082031 673.964844 493.164062 C 676.492188 497.242188 675.234375 502.597656 671.152344 505.121094 C 610.625 542.59375 537.800781 610.945312 537.070312 611.632812 C 535.394531 613.214844 533.253906 613.996094 531.113281 613.996094 Z M 531.113281 613.996094 " fill-opacity="1" fill-rule="nonzero"/><path fill="#89d770" d="M 723.847656 460.175781 L 569.882812 469.644531 L 555.324219 233.058594 L 709.289062 223.589844 Z M 723.847656 460.175781 " fill-opacity="1" fill-rule="nonzero"/><path fill="#6db850" d="M 717.960938 223.023438 C 717.664062 218.234375 713.570312 214.597656 708.753906 214.882812 L 554.785156 224.34375 C 549.996094 224.640625 546.351562 228.761719 546.644531 233.550781 L 561.191406 470.140625 C 561.332031 472.441406 562.378906 474.59375 564.105469 476.117188 C 565.699219 477.523438 567.75 478.296875 569.863281 478.296875 C 570.042969 478.296875 570.21875 478.292969 570.398438 478.28125 L 724.367188 468.820312 C 726.667969 468.675781 728.820312 467.628906 730.34375 465.902344 C 731.875 464.175781 732.652344 461.914062 732.507812 459.617188 Z M 670.988281 454.6875 L 621.644531 457.722656 C 616.589844 435.628906 597.875 419.050781 575.324219 416.753906 L 567.210938 284.800781 C 577.972656 282.355469 587.679688 276.640625 595.136719 268.210938 C 602.59375 259.78125 607.078125 249.449219 608.1875 238.472656 L 657.523438 235.441406 C 659.96875 246.195312 665.683594 255.902344 674.113281 263.355469 C 682.539062 270.8125 692.867188 275.296875 703.832031 276.410156 L 711.945312 408.367188 C 689.863281 413.429688 673.304688 432.160156 670.988281 454.6875 Z M 702.738281 258.679688 C 696.445312 257.511719 690.550781 254.699219 685.628906 250.34375 C 680.699219 245.984375 677.183594 240.46875 675.253906 234.351562 L 701.148438 232.761719 Z M 590.453125 239.5625 C 589.285156 245.871094 586.472656 251.773438 582.109375 256.703125 C 577.753906 261.632812 572.238281 265.148438 566.121094 267.078125 L 564.527344 241.15625 Z M 576.410156 434.453125 C 589.304688 436.863281 599.964844 446.28125 603.941406 458.808594 L 578.007812 460.402344 Z M 688.6875 453.601562 C 691.09375 440.683594 700.507812 430.039062 713.03125 426.0625 L 714.628906 452.007812 Z M 688.6875 453.601562 " fill-opacity="1" fill-rule="nonzero"/><path fill="#6db850" d="M 690.449219 343.457031 C 689.765625 332.316406 683.492188 322.363281 672.789062 315.4375 C 662.914062 309.042969 650.253906 305.964844 637.140625 306.769531 C 609.101562 308.492188 587.382812 327.753906 588.730469 349.707031 C 589.414062 360.847656 595.6875 370.800781 606.390625 377.726562 C 615.234375 383.453125 626.3125 386.519531 637.941406 386.519531 C 639.300781 386.519531 640.667969 386.480469 642.039062 386.394531 C 655.148438 385.589844 667.335938 380.984375 676.355469 373.429688 C 686.132812 365.238281 691.136719 354.59375 690.449219 343.457031 Z M 673.101562 344.523438 C 673.441406 350.019531 670.632812 355.550781 665.191406 360.109375 C 659 365.296875 650.398438 368.46875 640.972656 369.050781 C 631.558594 369.632812 622.621094 367.53125 615.835938 363.140625 C 609.882812 359.285156 606.414062 354.136719 606.078125 348.640625 C 605.328125 336.460938 620.042969 325.230469 638.207031 324.113281 C 639.238281 324.050781 640.253906 324.019531 641.269531 324.019531 C 649.554688 324.019531 657.300781 326.113281 663.34375 330.023438 C 669.300781 333.878906 672.765625 339.027344 673.101562 344.523438 Z M 673.101562 344.523438 " fill-opacity="1" fill-rule="nonzero"/><path fill="#89d770" d="M 715.789062 516.144531 L 571.449219 461.722656 L 655.125 239.925781 L 799.46875 294.347656 Z M 715.789062 516.144531 " fill-opacity="1" fill-rule="nonzero"/><path fill="#6db850" d="M 802.539062 286.238281 L 658.203125 231.820312 C 656.046875 231.007812 653.652344 231.082031 651.554688 232.03125 C 649.453125 232.980469 647.816406 234.726562 647.003906 236.882812 L 563.328125 458.667969 C 561.636719 463.160156 563.902344 468.171875 568.390625 469.863281 L 712.726562 524.285156 C 713.71875 524.65625 714.757812 524.84375 715.792969 524.84375 C 717.019531 524.84375 718.238281 524.585938 719.375 524.070312 C 721.476562 523.121094 723.113281 521.375 723.925781 519.222656 L 807.601562 297.433594 C 809.296875 292.945312 807.027344 287.933594 802.539062 286.238281 Z M 751.070312 316.269531 C 755.703125 326.519531 763.289062 334.839844 772.835938 340.34375 L 726.167969 464.046875 C 715.351562 461.875 704.160156 463.113281 693.910156 467.746094 C 683.652344 472.382812 675.324219 479.972656 669.816406 489.53125 L 623.566406 472.097656 C 625.742188 461.28125 624.503906 450.089844 619.871094 439.835938 C 615.234375 429.582031 607.648438 421.261719 598.09375 415.757812 L 644.765625 292.054688 C 648.203125 292.738281 651.652344 293.085938 655.074219 293.085938 C 673.765625 293.085938 691.53125 283.148438 701.121094 266.574219 L 747.375 284.011719 C 745.199219 294.824219 746.433594 306.019531 751.070312 316.269531 Z M 660.199219 251.144531 L 684.53125 260.316406 C 677.039062 271.117188 664.082031 276.976562 651.023438 275.46875 Z M 591.828125 432.371094 C 597.09375 436.015625 601.324219 440.996094 604.035156 446.992188 C 606.746094 452.988281 607.691406 459.460938 606.945312 465.828125 L 582.660156 456.671875 Z M 710.730469 504.957031 L 686.441406 495.800781 C 690.085938 490.527344 695.074219 486.292969 701.070312 483.578125 C 707.0625 480.871094 713.53125 479.921875 719.898438 480.664062 Z M 779.105469 323.726562 C 773.84375 320.085938 769.617188 315.105469 766.910156 309.117188 C 764.199219 303.121094 763.25 296.648438 764 290.277344 L 788.269531 299.429688 Z M 779.105469 323.726562 " fill-opacity="1" fill-rule="nonzero"/><path fill="#6db850" d="M 699.558594 340.738281 C 673.273438 330.824219 645.566406 339.503906 637.800781 360.082031 C 633.863281 370.523438 635.503906 382.171875 642.429688 392.871094 C 648.820312 402.75 659.109375 410.742188 671.398438 415.375 C 678.726562 418.140625 686.300781 419.535156 693.628906 419.535156 C 698.59375 419.535156 703.441406 418.894531 708.019531 417.601562 C 720.289062 414.132812 729.21875 406.476562 733.15625 396.03125 C 737.097656 385.589844 735.453125 373.941406 728.527344 363.238281 C 722.136719 353.359375 711.847656 345.371094 699.558594 340.738281 Z M 716.890625 389.898438 C 714.949219 395.050781 710.117188 398.949219 703.292969 400.878906 C 695.519531 403.074219 686.371094 402.449219 677.53125 399.117188 C 668.695312 395.785156 661.414062 390.21875 657.027344 383.4375 C 653.171875 377.480469 652.121094 371.363281 654.066406 366.210938 C 657 358.425781 666.320312 353.988281 677.351562 353.988281 C 682.492188 353.988281 688.011719 354.953125 693.425781 356.996094 C 702.261719 360.324219 709.542969 365.894531 713.933594 372.675781 C 717.785156 378.632812 718.835938 384.75 716.890625 389.898438 Z M 716.890625 389.898438 " fill-opacity="1" fill-rule="nonzero"/><path fill="#b1b9c6" d="M 758.675781 509.003906 C 749.664062 537.324219 732.417969 557.117188 704.089844 548.109375 C 675.761719 539.097656 660.105469 508.835938 669.117188 480.519531 C 678.128906 452.203125 708.402344 436.546875 736.730469 445.558594 C 765.058594 454.570312 767.691406 480.6875 758.675781 509.003906 Z M 758.675781 509.003906 " fill-opacity="1" fill-rule="nonzero"/><path fill="#678490" d="M 739.367188 437.28125 C 723.457031 432.21875 706.523438 433.652344 691.6875 441.324219 C 676.859375 448.992188 665.898438 461.976562 660.835938 477.882812 C 650.386719 510.722656 668.605469 545.9375 701.453125 556.386719 C 704.929688 557.492188 708.320312 558.203125 711.628906 558.605469 C 668.769531 614.667969 598.050781 676.429688 597.273438 677.105469 C 593.652344 680.253906 593.269531 685.742188 596.421875 689.363281 C 598.140625 691.335938 600.550781 692.347656 602.980469 692.347656 C 605.003906 692.347656 607.035156 691.644531 608.683594 690.214844 C 608.898438 690.023438 630.6875 671.042969 657.222656 644.8125 C 692.09375 610.34375 718.585938 579.992188 736.058594 554.53125 C 749.433594 547.707031 760.109375 533.160156 766.960938 511.640625 C 779.003906 473.792969 768.945312 446.691406 739.367188 437.28125 Z M 750.394531 506.371094 C 741.3125 534.898438 726.613281 546.15625 706.726562 539.828125 C 683.007812 532.285156 669.855469 506.863281 677.398438 483.152344 C 681.054688 471.667969 688.964844 462.292969 699.671875 456.757812 C 706.179688 453.394531 713.242188 451.691406 720.359375 451.691406 C 724.960938 451.691406 729.585938 452.40625 734.09375 453.839844 C 753.992188 460.167969 759.476562 477.839844 750.394531 506.371094 Z M 750.394531 506.371094 " fill-opacity="1" fill-rule="nonzero"/><path fill="#678490" d="M 356.214844 607.1875 C 354.855469 607.1875 353.472656 606.867188 352.183594 606.1875 C 351.277344 605.714844 261.085938 558.441406 190.925781 537.25 C 186.34375 535.863281 183.746094 531.027344 185.132812 526.441406 C 186.519531 521.859375 191.363281 519.265625 195.945312 520.648438 C 267.714844 542.328125 356.515625 588.871094 360.261719 590.84375 C 364.5 593.074219 366.125 598.320312 363.898438 602.554688 C 362.34375 605.503906 359.332031 607.1875 356.214844 607.1875 Z M 356.214844 607.1875 " fill-opacity="1" fill-rule="nonzero"/><path fill="#89d770" d="M 75.28125 284.546875 L 225.421875 249.125 L 279.886719 479.832031 L 129.746094 515.253906 Z M 75.28125 284.546875 " fill-opacity="1" fill-rule="nonzero"/><path fill="#6db850" d="M 288.347656 477.8125 L 233.882812 247.113281 C 232.78125 242.445312 228.097656 239.554688 223.429688 240.652344 L 73.292969 276.074219 C 71.050781 276.605469 69.109375 278.003906 67.898438 279.960938 C 66.6875 281.921875 66.300781 284.285156 66.832031 286.527344 L 121.300781 517.226562 C 122.242188 521.226562 125.808594 523.921875 129.75 523.921875 C 130.410156 523.921875 131.082031 523.84375 131.753906 523.6875 L 281.886719 488.265625 C 284.128906 487.734375 286.070312 486.335938 287.285156 484.375 C 288.496094 482.417969 288.878906 480.054688 288.347656 477.8125 Z M 226.886719 483.386719 L 178.769531 494.738281 C 170.039062 473.839844 148.773438 460.695312 126.171875 462.226562 L 95.792969 333.550781 C 105.96875 329.316406 114.558594 322.042969 120.472656 312.472656 C 126.386719 302.902344 129.050781 291.960938 128.285156 280.957031 L 176.390625 269.605469 C 180.628906 279.792969 187.90625 288.390625 197.484375 294.304688 C 205.988281 299.5625 215.574219 302.265625 225.328125 302.265625 C 226.554688 302.265625 227.78125 302.207031 229.011719 302.121094 L 259.386719 430.792969 C 238.488281 439.511719 225.34375 460.785156 226.886719 483.386719 Z M 224.929688 284.835938 C 218.515625 284.757812 212.214844 282.984375 206.621094 279.527344 C 201.023438 276.066406 196.617188 271.226562 193.679688 265.527344 L 218.960938 259.5625 Z M 110.992188 285.035156 C 110.914062 291.445312 109.140625 297.742188 105.683594 303.339844 C 102.226562 308.933594 97.398438 313.328125 91.710938 316.261719 L 85.742188 290.988281 Z M 130.246094 479.480469 C 143.382812 479.667969 155.472656 487.144531 161.511719 498.8125 L 136.21875 504.777344 Z M 244.144531 479.316406 C 244.320312 466.171875 251.792969 454.074219 263.460938 448.042969 L 269.433594 473.347656 Z M 244.144531 479.316406 " fill-opacity="1" fill-rule="nonzero"/><path fill="#6db850" d="M 205.011719 345.851562 C 194.195312 341.226562 181.199219 340.335938 168.410156 343.355469 C 141.066406 349.804688 122.929688 372.46875 127.980469 393.875 C 132.117188 411.394531 150.523438 422.722656 172.0625 422.722656 C 176.839844 422.722656 181.777344 422.164062 186.738281 420.992188 C 199.523438 417.976562 210.753906 411.371094 218.363281 402.398438 C 226.605469 392.671875 229.734375 381.332031 227.167969 370.472656 C 224.605469 359.609375 216.738281 350.867188 205.011719 345.851562 Z M 205.101562 391.164062 C 199.878906 397.324219 191.9375 401.914062 182.746094 404.082031 C 165.039062 408.261719 147.703125 401.757812 144.898438 389.878906 C 142.097656 378.003906 154.691406 364.441406 172.402344 360.261719 C 181.59375 358.09375 190.75 358.648438 198.175781 361.824219 C 204.699219 364.617188 208.988281 369.101562 210.253906 374.460938 C 211.519531 379.824219 209.6875 385.753906 205.101562 391.164062 Z M 205.101562 391.164062 " fill-opacity="1" fill-rule="nonzero"/><path fill="#89d770" d="M 9.40625 378.394531 L 131.859375 284.601562 L 276.070312 472.765625 L 153.621094 566.554688 Z M 9.40625 378.394531 " fill-opacity="1" fill-rule="nonzero"/><path fill="#6db850" d="M 282.988281 467.449219 L 138.769531 279.296875 C 135.851562 275.488281 130.394531 274.765625 126.585938 277.683594 L 4.136719 371.476562 C 2.308594 372.878906 1.109375 374.949219 0.808594 377.234375 C 0.503906 379.515625 1.121094 381.828125 2.523438 383.65625 L 146.742188 571.808594 C 148.453125 574.042969 151.035156 575.214844 153.648438 575.214844 C 155.492188 575.214844 157.351562 574.628906 158.925781 573.421875 L 281.375 479.628906 C 283.203125 478.226562 284.402344 476.15625 284.703125 473.871094 C 285.007812 471.585938 284.390625 469.277344 282.988281 467.449219 Z M 229.199219 497.703125 L 189.964844 527.757812 C 181.925781 520.199219 171.761719 515.335938 160.601562 513.863281 C 149.453125 512.382812 138.375 514.433594 128.648438 519.636719 L 48.210938 414.691406 C 63.695312 398.179688 66.964844 373.398438 56.296875 353.414062 L 95.535156 323.355469 C 103.574219 330.917969 113.742188 335.777344 124.898438 337.253906 C 127.269531 337.566406 129.632812 337.722656 131.984375 337.722656 C 140.703125 337.722656 149.207031 335.585938 156.871094 331.480469 L 237.296875 436.40625 C 229.742188 444.4375 224.882812 454.597656 223.410156 465.753906 C 221.9375 476.90625 223.988281 487.980469 229.199219 497.703125 Z M 130.257812 296.761719 L 146.058594 317.371094 C 140.175781 319.929688 133.703125 320.890625 127.179688 320.027344 C 120.652344 319.164062 114.65625 316.550781 109.640625 312.554688 Z M 42.191406 364.21875 C 47.40625 376.269531 45.554688 390.3125 37.402344 400.589844 L 21.609375 379.988281 Z M 155.253906 554.347656 L 139.457031 533.734375 C 145.335938 531.183594 151.804688 530.226562 158.324219 531.085938 C 164.847656 531.953125 170.847656 534.5625 175.863281 538.558594 Z M 243.300781 486.902344 C 240.746094 481.019531 239.78125 474.550781 240.640625 468.027344 C 241.503906 461.507812 244.113281 455.511719 248.101562 450.503906 L 263.90625 471.121094 Z M 243.300781 486.902344 " fill-opacity="1" fill-rule="nonzero"/><path fill="#6db850" d="M 152.890625 381.191406 C 141.125 381.402344 128.902344 385.914062 118.476562 393.898438 C 96.175781 410.984375 88.917969 439.085938 102.296875 456.542969 C 109.082031 465.398438 119.890625 469.835938 131.808594 469.835938 C 143.390625 469.835938 156.019531 465.640625 167.011719 457.222656 C 177.4375 449.234375 184.976562 438.613281 188.238281 427.308594 C 191.777344 415.0625 189.984375 403.4375 183.191406 394.578125 C 176.402344 385.71875 165.628906 380.984375 152.890625 381.191406 Z M 171.539062 422.492188 C 169.300781 430.25 163.9375 437.6875 156.441406 443.429688 C 141.996094 454.492188 123.519531 455.660156 116.09375 445.976562 C 108.671875 436.292969 114.601562 418.757812 129.046875 407.695312 C 136.546875 401.949219 145.121094 398.710938 153.195312 398.566406 C 160.347656 398.449219 166.042969 400.777344 169.394531 405.148438 C 172.746094 409.515625 173.507812 415.675781 171.539062 422.492188 Z M 171.539062 422.492188 " fill-opacity="1" fill-rule="nonzero"/><path fill="#b1b9c6" d="M 110.523438 572.070312 C 127.339844 596.574219 149.570312 610.542969 174.085938 593.734375 C 198.597656 576.921875 204.839844 543.429688 188.027344 518.921875 C 171.210938 494.417969 137.707031 488.179688 113.191406 504.988281 C 88.679688 521.800781 93.710938 547.5625 110.523438 572.070312 Z M 110.523438 572.070312 " fill-opacity="1" fill-rule="nonzero"/><path fill="#678490" d="M 313.796875 686.441406 C 312.90625 686.019531 231 646.957031 172.367188 604.839844 C 174.589844 603.71875 176.804688 602.40625 179 600.898438 C 192.773438 591.457031 202.039062 577.21875 205.097656 560.808594 C 208.15625 544.398438 204.636719 527.777344 195.191406 514.011719 C 185.746094 500.246094 171.503906 490.980469 155.089844 487.921875 C 138.671875 484.867188 122.046875 488.382812 108.277344 497.824219 C 82.675781 515.378906 80.882812 544.234375 103.355469 576.984375 C 117.40625 597.460938 133.449219 608.527344 149.757812 609.667969 C 209.914062 656.15625 302.386719 700.261719 306.339844 702.136719 C 307.542969 702.707031 308.8125 702.980469 310.0625 702.980469 C 313.3125 702.980469 316.429688 701.148438 317.917969 698.015625 C 319.976562 693.679688 318.128906 688.5 313.796875 686.441406 Z M 117.6875 567.15625 C 100.753906 542.46875 100.890625 523.960938 118.109375 512.152344 C 128.046875 505.335938 140.042969 502.796875 151.902344 505.003906 C 163.757812 507.210938 174.039062 513.902344 180.859375 523.839844 C 187.679688 533.777344 190.21875 545.777344 188.007812 557.625 C 185.800781 569.472656 179.109375 579.753906 169.167969 586.570312 C 160.140625 592.761719 151.5 594.003906 142.75 590.371094 C 134.394531 586.902344 125.730469 578.875 117.6875 567.15625 Z M 117.6875 567.15625 " fill-opacity="1" fill-rule="nonzero"/><g clip-path="url(#2cb7cd611d)"><g clip-path="url(#21a512c114)"><path fill="#b1b9c6" d="M 382.777344 607.839844 L 503.9375 607.839844 L 503.9375 729 L 382.777344 729 Z M 382.777344 607.839844 " fill-opacity="1" fill-rule="nonzero"/></g></g></svg>